<?xml version="1.0" encoding="UTF-8" standalone="no"?><!DOCTYPE svg PUBLIC "-//W3C//DTD SVG 1.1//EN" "http://www.w3.org/Graphics/SVG/1.1/DTD/svg11.dtd"><svg width="100%" height="100%" viewBox="0 0 1130 1029" version="1.1" xmlns="http://www.w3.org/2000/svg" xmlns:xlink="http://www.w3.org/1999/xlink" xml:space="preserve" xmlns:serif="http://www.serif.com/" style="fill-rule:evenodd;clip-rule:evenodd;stroke-linejoin:round;stroke-miterlimit:2;"><path d="M316.992,1028.32c-53.516,0 -95.605,-13.574 -126.27,-40.723c-30.664,-27.148 -45.996,-69.043 -45.996,-125.684l0,-208.008c0,-36.328 -7.617,-61.719 -22.852,-76.172c-15.234,-14.453 -40.234,-21.68 -75,-21.68l-46.875,0l0,-83.203l46.875,0c34.766,0 59.766,-7.324 75,-21.973c15.234,-14.648 22.852,-40.137 22.852,-76.465l0,-208.008c0,-57.031 15.332,-99.023 45.996,-125.977c30.664,-26.953 72.754,-40.43 126.27,-40.43l60.352,0l0,76.172l-48.047,0c-31.641,0 -55.273,7.227 -70.898,21.68c-15.625,14.453 -23.438,37.305 -23.438,68.555l0,200.977c0,41.406 -7.91,72.656 -23.73,93.75c-15.82,21.094 -37.598,36.719 -65.332,46.875l0,12.305c27.734,10.156 49.512,25.684 65.332,46.582c15.82,20.898 23.73,52.246 23.73,94.043l0,200.977c0,30.859 7.812,53.613 23.438,68.262c15.625,14.648 39.258,21.973 70.898,21.973l48.047,0l0,76.172l-60.352,0Z" style="fill:#0027ff;fill-rule:nonzero;"/><path d="M324.98,1028.32l319.336,-1028.32l91.992,0l-319.336,1028.32l-91.992,0Z" style="fill:#0027ff;fill-rule:nonzero;"/><path d="M706.795,1028.32l0,-76.172l47.461,0c32.031,0 55.762,-7.324 71.191,-21.973c15.43,-14.648 23.145,-37.402 23.145,-68.262l0,-200.977c0,-41.797 8.105,-73.145 24.316,-94.043c16.211,-20.898 37.988,-36.426 65.332,-46.582l0,-12.305c-27.344,-10.156 -49.121,-25.781 -65.332,-46.875c-16.211,-21.094 -24.316,-52.344 -24.316,-93.75l0,-200.977c0,-31.25 -7.715,-54.102 -23.145,-68.555c-15.43,-14.453 -39.16,-21.68 -71.191,-21.68l-47.461,0l0,-76.172l59.766,0c53.906,0 96.191,13.477 126.855,40.43c30.664,26.953 45.996,68.945 45.996,125.977l0,208.008c0,36.328 7.617,61.816 22.852,76.465c15.234,14.648 40.234,21.973 75,21.973l46.289,0l0,83.203l-46.289,0c-34.766,0 -59.766,7.227 -75,21.68c-15.234,14.453 -22.852,39.844 -22.852,76.172l0,208.008c0,56.641 -15.332,98.535 -45.996,125.684c-30.664,27.148 -72.949,40.723 -126.855,40.723l-59.766,0Z" style="fill:#0027ff;fill-rule:nonzero;"/><path d="M363.41,1028.32c-53.516,0 -95.605,-13.574 -126.27,-40.723c-30.664,-27.148 -45.996,-69.043 -45.996,-125.684l0,-208.008c0,-36.328 -7.617,-61.719 -22.852,-76.172c-15.234,-14.453 -40.234,-21.68 -75,-21.68l-46.875,0l0,-83.203l46.875,0c34.766,0 59.766,-7.324 75,-21.973c15.234,-14.648 22.852,-40.137 22.852,-76.465l0,-208.008c0,-57.031 15.332,-99.023 45.996,-125.977c30.664,-26.953 72.754,-40.43 126.27,-40.43l60.352,0l0,76.172l-48.047,0c-31.641,0 -55.273,7.227 -70.898,21.68c-15.625,14.453 -23.438,37.305 -23.438,68.555l0,200.977c0,41.406 -7.91,72.656 -23.73,93.75c-15.82,21.094 -37.598,36.719 -65.332,46.875l0,12.305c27.734,10.156 49.512,25.684 65.332,46.582c15.82,20.898 23.73,52.246 23.73,94.043l0,200.977c0,30.859 7.812,53.613 23.438,68.262c15.625,14.648 39.258,21.973 70.898,21.973l48.047,0l0,76.172l-60.352,0Z" style="fill:#f00;fill-rule:nonzero;"/><path d="M371.397,1028.32l319.336,-1028.32l91.992,0l-319.336,1028.32l-91.992,0Z" style="fill:#f00;fill-rule:nonzero;"/><path d="M753.213,1028.32l0,-76.172l47.461,0c32.031,0 55.762,-7.324 71.191,-21.973c15.43,-14.648 23.145,-37.402 23.145,-68.262l0,-200.977c0,-41.797 8.105,-73.145 24.316,-94.043c16.211,-20.898 37.988,-36.426 65.332,-46.582l0,-12.305c-27.344,-10.156 -49.121,-25.781 -65.332,-46.875c-16.211,-21.094 -24.316,-52.344 -24.316,-93.75l0,-200.977c0,-31.25 -7.715,-54.102 -23.145,-68.555c-15.43,-14.453 -39.16,-21.68 -71.191,-21.68l-47.461,0l0,-76.172l59.766,0c53.906,0 96.191,13.477 126.855,40.43c30.664,26.953 45.996,68.945 45.996,125.977l0,208.008c0,36.328 7.617,61.816 22.852,76.465c15.234,14.648 40.234,21.973 75,21.973l46.289,0l0,83.203l-46.289,0c-34.766,0 -59.766,7.227 -75,21.68c-15.234,14.453 -22.852,39.844 -22.852,76.172l0,208.008c0,56.641 -15.332,98.535 -45.996,125.684c-30.664,27.148 -72.949,40.723 -126.855,40.723l-59.766,0Z" style="fill:#f00;fill-rule:nonzero;"/></svg>